<svg width="678" height="701" viewBox="0 0 678 701" fill="none" xmlns="http://www.w3.org/2000/svg">
<rect width="678" height="701" fill="#1E1E1E"/>
<rect id="Rectangle 2" x="1" width="677" height="701" fill="black"/>
<g id="Rectangle 1">
<mask id="path-2-inside-1_0_1" fill="white">
<path d="M370 123C501 100 678 0 678 0V695C678 695 447.771 715.411 281 680C180 658.554 -13 541.5 1.5 364.5C16 187.5 239 146 370 123Z"/>
</mask>
<path d="M370 123C501 100 678 0 678 0V695C678 695 447.771 715.411 281 680C180 658.554 -13 541.5 1.5 364.5C16 187.5 239 146 370 123Z" fill="white"/>
<path d="M369.914 122.508C369.971 122.836 370.029 123.164 370.086 123.492C408.798 116.587 446.499 104.598 483.359 90.9616C550.5 65.7728 615.543 34.849 678.246 0.435327L677.5 0C677.5 231.667 677.5 463.333 677.5 695L677.956 694.502C558.311 703.081 436.949 704.269 317.948 686.31C305.618 684.347 293.253 682.091 281.104 679.511C139.414 642.129 -9.54045 523.399 1.99833 364.541C9.62705 236.358 143.829 174.152 254.668 147.207C292.737 137.466 331.465 130.238 370.086 123.492C370.029 123.164 369.971 122.836 369.914 122.508C331.288 129.254 292.531 136.487 254.42 146.238C143.533 173.194 8.71392 235.551 1.00167 364.459C-10.5024 524.113 138.796 642.97 280.896 680.489C293.064 683.073 305.446 685.332 317.791 687.298C436.933 705.275 558.307 704.082 678.044 695.498L678.5 695.458V695C678.5 463.333 678.5 231.667 678.5 0V-0.856767L677.754 -0.435327C615.115 33.9437 550.084 64.8619 483.011 90.0244C446.187 103.648 408.528 115.62 369.914 122.508ZM370.086 123.492L369.914 122.508L370.086 123.492Z" fill="black" mask="url(#path-2-inside-1_0_1)"/>
</g>
</svg>
